# xmcd CD database file
#
# Track frame offsets:
#	150
#	8284
#	25195
#	36287
#	50575
#	61264
#	85356
#	100829
#	118828
#	134376
#	151548
#	171533
#	198346
#	203953
#	230378
#
# Disc length: 3202 seconds
#
# Revision: 0
# Processed by: cddbd v1.5.2PL0 Copyright (c) Steve Scherf et al.
# Submitted via: CDex 1.51
#
DISCID=c00c800f
DTITLE=Molly Gene One Whoaman Band - Folk Blues And Booze
DYEAR=2011
DGENRE=Country
TTITLE0=When The Train Came Along
TTITLE1=Smells Like Low Tide
TTITLE2=Country Lover
TTITLE3=Stick Shift
TTITLE4=Kiss Me Quick
TTITLE5=Kings And Queens
TTITLE6=Waitin'
TTITLE7=Reformation
TTITLE8=White Girl From Missouri
TTITLE9=Tumbleweed
TTITLE10=Down In Mexico
TTITLE11=Dinks Song
TTITLE12=Union Pacific
TTITLE13=Uncle Sam Ain't No Lady, But He Sure Can Take Your Man
TTITLE14=Outro
EXTD=YEAR: 2011
EXTT0=
EXTT1=
EXTT2=
EXTT3=
EXTT4=
EXTT5=
EXTT6=
EXTT7=
EXTT8=
EXTT9=
EXTT10=
EXTT11=
EXTT12=
EXTT13=
EXTT14=
PLAYORDER=
